<svg enable-background="new 0 0 110 110" height="512" viewBox="0 0 110 110" width="512" xmlns="http://www.w3.org/2000/svg"><path d="m65.7040939 40.2799911h-21.4080124c-2.0950241 0-3.7995186-1.7044945-3.7995186-3.7995186v-8.7517204c0-2.0950241 1.7044945-3.7995205 3.7995186-3.7995205h21.4080124c2.0950241 0 3.7995224 1.7044964 3.7995224 3.7995205v8.7517204c0 2.0950242-1.7044983 3.7995186-3.7995224 3.7995186zm-21.4080124-12.551239v8.7517204l21.4103317-.0001183-.0023193-8.7516022h-21.4080124z" fill="#344d5b"/><path d="m89.1690979 33.0922356h-68.3381939c-2.098444 0-3.7995205 1.7007866-3.7995205 3.7995186v45.3794937c0 2.098732 1.7010765 3.7995224 3.7995205 3.7995224h68.3381958c2.0984421 0 3.7995148-1.7007904 3.7995148-3.7995224v-45.3794937c-.0000019-2.098732-1.7010746-3.7995186-3.7995167-3.7995186z" fill="#304551"/><path d="m28.887754 33.092236h5.041019v52.978535h-5.041019z" fill="#467082"/><path d="m76.071228 33.092236h5.041019v52.978535h-5.041019z" fill="#467082"/><path d="m51.867554 29.732246h8.16574v88.37944h-8.16574z" fill="#d6b24e" transform="matrix(0 -1 1 0 -17.972 129.872)"/><path d="m4.2946267 73.9219666 2.5091486 1.8243637 4.9590516 2.2583389v-8.1656571l-4.9590516 2.258339z" fill="#dbd8dd"/><path d="m6.8037977 75.7462769v-3.6488724l-4.0064509 1.8244324z" fill="#344d5b"/><path d="m105.7018509 69.8391037h-3.7319946v8.1656876h3.7319946c.8288574 0 1.5008011-.6716461 1.5008011-1.500946v-5.1637955c0-.8293-.6719437-1.5009461-1.5008011-1.5009461z" fill="#dd584d"/><path d="m68.3807602 49.3934631h-2.4349899c-.2520676-.9172249-.6118698-1.7877579-1.072403-2.5962524l1.719635-1.7197189c.2584076-.2581558.2584076-.6770782.0000839-.9352379l-3.327034-3.3273659c-.2584915-.2584915-.6774139-.2584915-.9359055-.0003319l-1.7197189 1.7197151c-.8085747-.4606133-1.6790237-.8201675-2.5960846-1.072319v-2.4354897c0-.3648911-.2960167-.6610718-.6611557-.6610718h-4.7062912c-.3652229 0-.6612396.2961807-.6612396.6610718v2.4354897c-.9170609.2521515-1.7875099.6117058-2.5960846 1.072319l-1.7200508-1.7200508c-.2582436-.2581558-.6769981-.2581558-.9352417 0l-3.3273659 3.3280334c-.2582397.2581596-.2582397.6770821.0000839.9352379l1.719635 1.7197189c-.4605331.8084946-.8203354 1.6790276-1.0724068 2.5962524h-2.4352378c-.3652229 0-.6612358.2961807-.6612358.6610718v4.7062111c0 .3648872.2960129.661068.6612358.661068h2.4352379c.2520714.9168968.6117897 1.7877617 1.0723228 2.5962563l-1.7198029 1.7197151c-.2581558.2584915-.2581558.6770821 0 .9352417l3.3275337 3.3280334c.2582436.2581558.6769981.2581558.9352417 0l1.7200508-1.7200508c.8085747.4606133 1.6790237.8201675 2.5960846 1.072319v2.435154c0 .3652267.2961807.6614075.6615715.6614075h4.7056274c.3653069 0 .6614876-.2961807.6614876-.6614075v-2.435154c.9170609-.2521515 1.7875099-.6117058 2.5960846-1.072319l1.7197189 1.7197151c.2584915.2581558.6774139.2581558.9359055-.0003357l3.327034-3.3273621c.2583237-.2581596.2583237-.6770821-.0000839-.9352417l-1.719635-1.7197151c.4605331-.8084946.8203354-1.6790276 1.072403-2.5962563h2.4353256c.3651352 0 .6611557-.2961807.6611557-.661068v-4.7058754c.0000001-.3652265-.2961806-.6614073-.6614913-.6614073zm-13.3807602 10.0935059c-3.9098053 0-7.0793266-3.1696053-7.0793266-7.0793304s3.1695213-7.0793267 7.0793266-7.0793267 7.0793266 3.1696053 7.0793266 7.0793266-3.1695213 7.0793305-7.0793266 7.0793305z" fill="#b1b2b6"/><path d="m53.91111 31.773558h4.082878v88.37944h-4.082878z" fill="#c19c49" transform="matrix(0 -1 1 0 -20.011 131.916)"/><path d="m96.974022 72.684319h8.165708v2.475033h-8.165708z" fill="#ededed" transform="matrix(0 -1 1 0 27.135 174.979)"/></svg>