<svg id="Science-Education-Medical-Computer-Tube" height="512" viewBox="0 0 64 64" width="512" xmlns="http://www.w3.org/2000/svg"><path d="m54 11h-44a4 4 0 0 0 -4 4v26h52v-26a4 4 0 0 0 -4-4z" fill="#5aaae7"/><path d="m58 41v4a4 4 0 0 1 -4 4h-44a4 4 0 0 1 -4-4v-4z" fill="#c6c5ca"/><path d="m51.77 34.2-2.71-6.2-3.06-7v-6a2.006 2.006 0 0 0 2-2 2.015 2.015 0 0 0 -2-2h-6a2.006 2.006 0 0 0 -2 2 2.015 2.015 0 0 0 2 2v6l-3.06 7-2.71 6.2a2 2 0 0 0 1.83 2.8h13.88a2 2 0 0 0 1.83-2.8z" fill="#3d9ae2"/><path d="m51.77 32.2a2 2 0 0 1 -1.83 2.8h-13.88a2 2 0 0 1 -1.83-2.8l2.71-6.2h12.12z" fill="#ffd422"/><path d="m46 19 3.06 7h-12.12l3.06-7v-6h6z" fill="#e6e7e8"/><path d="m47.41 9.59a1.955 1.955 0 0 0 -1.41-.59h-6a2.006 2.006 0 0 0 -2 2 2.015 2.015 0 0 0 2 2h6a2.006 2.006 0 0 0 2-2 1.955 1.955 0 0 0 -.59-1.41z" fill="#d1d3d4"/><path d="m43.41 57.59a1.955 1.955 0 0 1 .59 1.41 2.006 2.006 0 0 1 -2 2h-20a2.015 2.015 0 0 1 -2-2 2.006 2.006 0 0 1 2-2h20a1.955 1.955 0 0 1 1.41.59z" fill="#898890"/><path d="m40 57h-16l1-8h14z" fill="#acabb1"/><path d="m29.66 25.59a8.981 8.981 0 0 0 -5.66-6.07v-4.52a2.006 2.006 0 0 0 2-2 2.015 2.015 0 0 0 -2-2h-6a2.006 2.006 0 0 0 -2 2 2.015 2.015 0 0 0 2 2v4.52a9 9 0 0 0 -5.46 5.44 8.759 8.759 0 0 0 -.54 3.04 9 9 0 0 0 18 0 8.357 8.357 0 0 0 -.34-2.41z" fill="#3d9ae2"/><path d="m29.66 23.59a8.357 8.357 0 0 1 .34 2.41 9 9 0 0 1 -18 0 8.759 8.759 0 0 1 .54-3.04 9.547 9.547 0 0 0 3.79.7c3.67 0 3.67-1.32 7.33-1.32 3.16 0 3.6.98 6 1.25z" fill="#00ccb3"/><path d="m24 17.52a8.981 8.981 0 0 1 5.66 6.07c-2.4-.27-2.84-1.25-6-1.25-3.66 0-3.66 1.32-7.33 1.32a9.547 9.547 0 0 1 -3.79-.7 9 9 0 0 1 5.46-5.44v-4.52h6z" fill="#e6e7e8"/><path d="m25.41 9.59a1.955 1.955 0 0 0 -1.41-.59h-6a2.006 2.006 0 0 0 -2 2 2.015 2.015 0 0 0 2 2h6a2.006 2.006 0 0 0 2-2 1.955 1.955 0 0 0 -.59-1.41z" fill="#d1d3d4"/><path d="m39.25 51h-14.5l.25-2h14z" fill="#898890"/><path d="m51 44h2v2h-2z" fill="#898890"/><g fill="#ebbf00"><path d="m42 30h2v2h-2z"/><path d="m38 28h2v2h-2z"/><path d="m46 29h2v2h-2z"/></g><path d="m43 21h2v2h-2z" fill="#c6c5ca"/><path d="m16 27h2v2h-2z" fill="#00b39d"/><path d="m21 30h2v2h-2z" fill="#00b39d"/><path d="m22 25h2v2h-2z" fill="#00b39d"/><path d="m19 19h2v2h-2z" fill="#c6c5ca"/><path d="m44 9h-2v-5h-20v5h-2v-6a1 1 0 0 1 1-1h22a1 1 0 0 1 1 1z" fill="#ff9811"/></svg>